Coordinates
version=1
nRows=16
nColumns=36
inDegrees=yes

Units are S.I. units (second, meters, Newtons, ...)
If the header above contains a line with 'inDegrees', this indicates whether rotational values are in degrees (yes) or radians (no).

endheader
time	pelvis_tilt	pelvis_list	pelvis_rotation	pelvis_tx	pelvis_ty	pelvis_tz	hip_flexion_r	hip_adduction_r	hip_rotation_r	knee_angle_r	knee_angle_r_beta	ankle_angle_r	subtalar_angle_r	mtp_angle_r	hip_flexion_l	hip_adduction_l	hip_rotation_l	knee_angle_l	knee_angle_l_beta	ankle_angle_l	subtalar_angle_l	mtp_angle_l	lumbar_extension	lumbar_bending	lumbar_rotation	arm_flex_r	arm_add_r	arm_rot_r	elbow_flex_r	pro_sup_r	arm_flex_l	arm_add_l	arm_rot_l	elbow_flex_l	pro_sup_l
      3.00000000	    -29.37144020	      0.50979060	     -2.07988995	      0.66636113	      0.59654275	      0.02039908	     96.81695398	      3.87243895	      5.71094120	     98.72092868	      1.72300525	     36.42559275	    -25.72442063	     -7.49999987	     97.33757278	     -4.36404629	      7.22270778	     99.64513469	      1.73913568	     36.67575240	    -10.82736993	     -7.49999987	    -12.88457192	     -2.49865433	      4.03717020	     21.88507062	    -31.89588381	      4.26118915	    109.48635372	     87.00632413	     54.37270238	    -49.28767557	     34.33855120	    121.68813600	     81.50029525
      3.01666670	    -30.43856200	      1.13457054	     -2.28739852	      0.66440025	      0.58584288	      0.02162091	     99.28074804	      3.85159484	      6.39275173	    100.60974620	      1.75597133	     36.44101375	    -25.85786821	     -7.49999987	     99.29859873	     -3.90771878	      7.00149892	    101.20994969	      1.76644686	     37.67778417	    -11.17392224	     -7.49999987	    -13.15752901	     -2.67445617	      3.10059994	     28.96923613	    -32.87995984	      8.51378284	    107.68269452	     87.85314113	     59.46459296	    -48.61103651	     37.25544440	    119.71918641	     82.40291758
      3.03333330	    -31.37285768	      1.46251482	     -2.17459256	      0.66696325	      0.57365159	      0.02406868	    101.29175881	      3.82847465	      6.61319199	    102.29395910	      1.78536639	     36.96035141	    -26.09911363	     -7.49999987	    101.26479812	     -3.64672951	      7.19058576	    102.98047029	      1.79734827	     37.67977158	    -11.57495276	     -7.49999987	    -12.87274125	     -2.72099404	      2.22104198	     35.03698441	    -34.23527946	     11.63176412	    106.90175182	     88.67093582	     64.87728901	    -48.93752912	     39.95225359	    118.54882721	     83.24633632
      3.05000000	    -32.18037431	      1.73489945	     -2.01555392	      0.66870556	      0.56906227	      0.01838908	    102.62360858	      3.82072493	      7.11729035	    103.08848695	      1.79923352	     37.06944618	    -26.25756799	     -7.49999987	    102.76038629	     -3.19141701	      7.02591405	    104.12322602	      1.81729312	     37.50910562	    -12.12775393	     -7.49999987	    -12.28112949	     -2.56069575	      1.71566323	     40.89403977	    -36.74426424	     14.08531654	    106.88923433	     89.32905977	     70.12266066	    -48.85869583	     42.16793848	    117.20653685	     83.77462900
      3.06666670	    -32.96299453	      1.79352408	     -1.66172032	      0.67490070	      0.56444357	      0.01925643	    103.51938412	      3.76306447	      7.44924072	    103.91229560	      1.81361169	     37.40621634	    -26.53002134	     -7.49999987	    103.52144962	     -2.78801149	      7.19930792	    104.52879358	      1.82437161	     37.93830570	    -12.17115130	     -7.49999987	    -10.92249334	     -2.22235352	      1.69893252	     45.97255189	    -39.96566777	     15.93958035	    107.61457694	     89.41726737	     74.82587411	    -48.49290253	     44.15251932	    116.36959362	     83.77109740
      3.08333330	    -33.92125982	      1.88135643	     -1.50784471	      0.68334772	      0.56848735	      0.01673830	    103.69175318	      3.80443319	      7.81052920	    103.91748088	      1.81370219	     37.44538085	    -27.05056410	     -7.49999987	    103.82283734	     -2.41000696	      7.10911889	    104.46308480	      1.82322478	     38.00583548	    -12.38962762	     -7.49999987	     -9.06378249	     -1.71700763	      2.05916874	     50.17374867	    -43.47852475	     16.67648110	    108.56609654	     89.53600826	     78.17768619	    -48.07292854	     45.12353282	    115.87309210	     83.73765570
      3.10000000	    -34.81599082	      2.20025576	     -1.42263765	      0.69167608	      0.57791503	      0.01475763	    103.06946276	      3.89503548	      8.46149867	    102.84120302	      1.79491760	     37.26333482	    -27.44747054	     -7.49999987	    103.09757771	     -2.08678772	      6.68950362	    103.36577949	      1.80407319	     38.27438035	    -12.52457608	     -7.49999987	     -6.70831343	     -1.41220698	      2.20026641	     53.70455320	    -45.64135412	     15.54883114	    108.39215956	     89.24555307	     80.01475990	    -47.90302740	     44.73607179	    115.51012549	     83.50259519
      3.11666670	    -34.89903903	      2.47841673	     -1.21096917	      0.70421343	      0.59150998	      0.01271601	    101.00619862	      3.59744467	      9.12801270	    101.35094365	      1.76890767	     37.14306010	    -27.83637032	     -7.49999987	    100.90078535	     -1.59146345	      6.22371178	    101.55914808	      1.77254152	     38.19936579	    -13.25778670	     -7.49999987	     -5.10079963	     -1.12679426	      4.33895392	     55.66118835	    -51.78463849	     14.78112795	    110.71247205	     88.71310991	     82.68351300	    -45.31661169	     46.70792510	    114.60973549	     83.47300255
      3.13333330	    -35.25833780	      2.74509760	     -1.15521606	      0.71532890	      0.60728601	      0.01091998	     98.65712961	      3.36434689	      9.75105721	     99.06128519	      1.72894559	     36.58157020	    -28.40260547	     -7.49999987	     98.48037096	     -1.09694222	      5.72858635	     99.29806671	      1.73307820	     37.72986223	    -14.32527532	     -7.49999987	     -2.92683380	     -0.41192326	      5.76179942	     57.68820834	    -56.61440767	     13.81640108	    112.27742866	     88.36157366	     81.90566906	    -44.65254996	     44.67963692	    116.36427184	     83.20185131
      3.15000000	    -35.51024716	      3.01192864	     -1.23543983	      0.72229477	      0.61493340	      0.01438997	     96.70306439	      3.40513717	     10.04816933	     97.16248356	      1.69580525	     36.90095878	    -28.36717040	     -7.49999987	     96.46784542	     -0.93909570	      5.52068487	     97.33402808	      1.69879926	     37.62009775	    -15.15112183	     -7.49999987	     -1.21045676	     -0.36794251	      6.79605777	     61.98591007	    -62.38595846	     13.78250370	    113.41655631	     85.67944924	     88.47300692	    -45.45660711	     46.91310154	    117.02354101	     81.40282171
      3.16666670	    -35.00249162	      3.19349223	     -1.50644705	      0.73262559	      0.63330544	      0.01260973	     93.94721317	      3.52531720	     10.27745836	     95.05258115	      1.65898050	     36.69522965	    -28.67644170	     -7.49999987	     93.52581346	     -0.87290764	      5.22125343	     95.04969814	      1.65893019	     36.66502309	    -16.22643288	     -7.49999987	     -0.16750631	     -0.69113771	      8.26218677	     67.27203079	    -68.99207037	     14.70697818	    112.99167564	     85.20042235	     97.90288495	    -45.65206867	     52.10690331	    116.39238912	     81.67851303
      3.18333330	    -34.04973021	      3.47867033	     -1.69163523	      0.74685685	      0.65543885	      0.01551520	     89.92370165	      3.46315363	     10.46583864	     92.04067783	      1.60641287	     36.40853267	    -28.85926597	     -7.49999987	     89.62513518	     -0.72862383	      4.91841149	     92.09865226	      1.60742472	     35.31838718	    -17.61941640	     -7.49999987	      0.21186332	     -1.18476758	     10.20791000	     72.28247087	    -76.56784013	     15.26229359	    112.41835805	     84.74696059	    106.96192700	    -45.45069079	     56.26023035	    115.19774576	     81.63792130
      3.20000000	    -33.69624561	      3.88489056	     -1.82913255	      0.75595685	      0.67579257	      0.01788146	     86.61219352	      3.32831610	     10.80069826	     88.75238058	      1.54902126	     35.57054721	    -29.21515600	     -7.49999987	     86.34513598	     -0.71323979	      4.35806992	     88.92723214	      1.55207300	     34.21049783	    -18.26584640	     -7.49999987	      1.33070886	     -2.17192779	     12.89280224	     77.17545789	    -85.44645666	     15.54035072	    111.02310960	     83.88580390	    116.74381930	    -43.77706627	     61.62324015	    112.41100994	     81.35032261
      3.21666670	    -33.00111180	      3.86372762	     -2.03696625	      0.76651962	      0.69948216	      0.01772903	     82.91059226	      3.04505416	     10.62655390	     85.08766907	      1.48505998	     34.06500788	    -29.56397468	     -7.49999987	     82.51251982	     -0.65087260	      4.33599864	     85.07825726	      1.48489571	     33.02438176	    -18.74994133	     -7.49999987	      2.26938839	     -0.53048813	      8.46790062	    -53.99579348	   -101.36578821	   -118.19207241	    103.69493530	     80.32810236	    130.43598553	    -53.17142417	     71.78511407	    114.25082932	     74.59408981
      3.23333330	    -32.44812966	      3.99529438	     -2.25941962	      0.78150117	      0.72891105	      0.01864728	     78.70003853	      2.52280520	     10.39203834	     80.19141146	      1.39960416	     31.84325534	    -29.64287170	     -7.49999987	     78.37297147	     -0.60234888	      4.28172661	     80.43649100	      1.40388161	     31.11934324	    -18.98293154	     -7.49999987	      3.71608648	      0.01656820	      5.77637152	    -45.84234144	   -105.67522057	   -112.60213228	     95.50000061	     81.68613717	    146.02479054	    -57.02190413	     84.87483179	    112.98763369	     74.45466350
      3.25000000	    -31.87241137	      4.08375812	     -2.57283203	      0.79511539	      0.75858948	      0.01856915	     74.16212138	      1.97364747	     10.09088045	     74.65517417	      1.30297859	     28.94597431	    -30.04261362	     -7.49999987	     73.98229896	     -0.71549857	      3.94254969	     75.38572399	      1.31572909	     28.68809023	    -19.40132675	     -7.49999987	      5.29751533	      0.48470852	      4.53471555	    -38.40545754	   -108.68857634	   -107.33747157	     86.31023728	     83.52618653	    158.06575283	    -57.22139150	     96.05857257	    109.64705710	     73.02525825
